<?xml version="1.0" encoding="UTF-8" standalone="no" ?>
<!DOCTYPE svg PUBLIC "-//W3C//DTD SVG 1.1//EN" "http://www.w3.org/Graphics/SVG/1.1/DTD/svg11.dtd">
<svg xmlns="http://www.w3.org/2000/svg" xmlns:xlink="http://www.w3.org/1999/xlink" version="1.1" width="256" height="256" viewBox="0 0 256 256" xml:space="preserve">
    <style>
        path {
            fill: #000;
            stroke: #fff;
            stroke-width: 0;
            stroke-dasharray: none;
            stroke-linecap: butt;
            stroke-dashoffset: 0;
            stroke-linejoin: miter;
            stroke-miterlimit: 4;
            fill-rule: nonzero;
            opacity: 1;
        }
    </style>
    <desc>Created with Fabric.js 4.6.0</desc>
    <defs>
    </defs>
    <g transform="matrix(1 0 0 1 128 128)" id="Pn9yM0yLJGiwYrrclvVuf">
        <path vector-effect="non-scaling-stroke" transform=" translate(-112.5, -112.5)" d="M 112.50879 0.00002 C 116.23075 0.00477 119.25 3.0269500000000003 119.25 6.7500100000000005 C 119.25 10.47601 116.226 13.50001 112.5 13.50001 C 112.49779 13.50001 112.4956 13.50001 112.49339 13.50001 C 87.46733 13.50165 64.60088 22.80471 47.164950000000005 38.13829 L 49.347620000000006 40.32096 C 50.557410000000004 41.53075 51.23706000000001 43.17157 51.23705 44.88246 C 51.23705 46.593360000000004 50.5574 48.23418 49.347620000000006 49.443960000000004 L 49.27825000000001 49.51333 C 46.75900000000001 52.03258 42.674490000000006 52.03258 40.155240000000006 49.51333 L 37.9834 47.34149 C 24.065890000000003 63.242599999999996 15.152090000000005 83.63224 13.707390000000004 106.04500999999999 L 23.813660000000006 106.04500999999999 C 27.064590000000006 106.04500999999999 29.700000000000006 108.68041 29.700000000000006 111.93135 L 29.700000000000006 113.15866 C 29.700000000000006 116.40959 27.064600000000006 119.045 23.813660000000006 119.045 L 13.713230000000006 119.045 C 15.182240000000007 141.51851 24.161200000000008 161.9536 38.16282000000001 177.86298 L 40.26778000000001 175.75802 C 41.47757000000001 174.54823 43.11839000000001 173.86857999999998 44.82928000000001 173.86858999999998 C 46.540180000000014 173.86858999999998 48.18100000000001 174.54824 49.390780000000014 175.75802 L 49.46015000000001 175.82738999999998 C 51.97940000000001 178.34663999999998 51.97940000000001 182.43114999999997 49.46015000000001 184.95039999999997 L 47.369450000000015 187.04109999999997 C 63.26768000000001 200.94561999999996 83.64839 209.85009999999997 106.04999000000001 211.29294 L 106.04999000000001 201.28134 C 106.04999000000001 198.03041 108.68539000000001 195.395 111.93633000000001 195.395 L 113.16364000000002 195.395 C 116.41457000000001 195.395 119.04998000000002 198.03040000000001 119.04998000000002 201.28134 L 119.04998000000002 211.28645 C 141.46079000000003 209.82041 161.84430000000003 200.88624000000002 177.73389000000003 186.95057 L 175.67013000000003 184.88681 C 173.15088000000003 182.36756 173.15088000000003 178.28305 175.67013000000003 175.7638 L 175.73950000000002 175.69443 C 178.25875000000002 173.17518 182.34326000000001 173.17518 184.86251000000001 175.69443 L 186.92786 177.75978 C 200.83504000000002 161.91372 209.76637 141.59423 211.27315000000002 119.25 L 113.05262000000002 119.25 C 113.04731000000002 119.25001 113.04200000000002 119.25002 113.03668000000002 119.25002 L 111.96333000000001 119.25002 C 108.53180000000002 119.25002 105.75000000000001 116.46822 105.75000000000001 113.03669000000001 L 105.75000000000001 69.21334000000002 C 105.75000000000001 65.78181000000002 108.53180000000002 63.00001000000002 111.96333000000001 63.00001000000002 L 113.03668000000002 63.00001000000002 C 116.46821000000001 63.00001000000002 119.25001000000002 65.78181000000002 119.25001000000002 69.21334000000002 L 119.25001000000002 105.75001000000002 L 218.26571 105.75001000000002 C 221.98431000000002 105.75001000000002 224.99895 108.76401000000001 224.99999000000003 112.48236000000001 L 224.99999000000003 112.45456000000001 C 225.00000000000003 112.46971000000002 225.00000000000003 112.48486000000001 225.00000000000003 112.50001000000002 C 225.00000000000003 174.60001000000003 174.60000000000002 225.00001000000003 112.50000000000003 225.00001000000003 C 50.40000000000003 225.00001000000003 2.842170943040401e-14 174.60001000000003 2.842170943040401e-14 112.50001000000003 C 2.842170943040401e-14 50.41598000000003 50.421980000000026 0.025930000000030873 112.49999000000003 0.000020000000034769982 C 112.51777000000003 0.000020000000034769982 112.53554000000003 0.000020000000034769982 112.55331000000002 0.00003000000003476998 z M 112.5 0 L 112.45209 0.00001 C 112.46806 0 112.48403 0 112.5 0 z" stroke-linecap="round" />
    </g>
</svg>